<svg xmlns="http://www.w3.org/2000/svg" xmlns:xlink="http://www.w3.org/1999/xlink" width="500" zoomAndPan="magnify" viewBox="0 0 375 374.999991" height="500" preserveAspectRatio="xMidYMid meet" version="1.0"><defs><g/><clipPath id="aaf3fee5b0"><path d="M 139.71875 85.554688 L 234.96875 85.554688 L 234.96875 235.554688 L 139.71875 235.554688 Z M 139.71875 85.554688 " clip-rule="nonzero"/></clipPath></defs><g clip-path="url(#aaf3fee5b0)"><path fill="#5900bd" d="M 199.675781 132.902344 L 199.675781 188.15625 L 192.160156 192.496094 L 175.316406 202.234375 L 153.203125 214.996094 L 175.316406 227.757812 L 188.773438 235.535156 L 199.675781 229.257812 L 227.730469 213.035156 L 235.273438 208.695312 L 235.273438 176.300781 L 227.730469 171.960938 L 207.632812 160.335938 L 227.421875 148.917969 L 235.273438 144.398438 L 235.273438 112.363281 L 223.621094 105.648438 L 199.675781 91.828125 L 188.878906 85.574219 L 175.316406 93.402344 L 153.28125 106.113281 L 139.71875 113.941406 L 139.71875 195.183594 L 168.265625 178.703125 L 175.316406 174.621094 L 175.316406 118.824219 L 188.050781 126.183594 Z M 199.675781 132.902344 " fill-opacity="1" fill-rule="evenodd"/></g><g fill="#5900bd" fill-opacity="1"><g transform="translate(126.63316, 252.851863)"><g><path d="M 3.019531 -7.367188 L 0.824219 -7.367188 L 0.824219 0 L 3.019531 0 C 7.925781 0 7.925781 -7.367188 3.019531 -7.367188 Z M 3.019531 -5.894531 C 5.882812 -5.894531 5.882812 -1.472656 3.019531 -1.472656 L 2.296875 -1.472656 L 2.296875 -5.894531 Z M 3.019531 -5.894531 "/></g></g></g><g fill="#5900bd" fill-opacity="1"><g transform="translate(142.134171, 252.851863)"><g><path d="M 4.636719 0 L 4.636719 -1.472656 L 2.296875 -1.472656 L 2.296875 -2.945312 L 4.234375 -2.945312 L 4.234375 -4.421875 L 2.296875 -4.421875 L 2.296875 -5.894531 L 4.511719 -5.894531 L 4.511719 -7.367188 L 0.824219 -7.367188 L 0.824219 0 Z M 4.636719 0 "/></g></g></g><g fill="#5900bd" fill-opacity="1"><g transform="translate(155.575028, 252.851863)"><g><path d="M 3.113281 0.15625 L 3.441406 0.15625 L 6.492188 -7.367188 L 4.792969 -7.367188 L 3.800781 -4.863281 L 3.277344 -3.390625 L 2.742188 -4.914062 L 1.761719 -7.367188 L 0.0625 -7.367188 Z M 3.113281 0.15625 "/></g></g></g><g fill="#5900bd" fill-opacity="1"><g transform="translate(170.385893, 252.851863)"><g><path d="M 4.636719 0 L 4.636719 -1.472656 L 2.296875 -1.472656 L 2.296875 -2.945312 L 4.234375 -2.945312 L 4.234375 -4.421875 L 2.296875 -4.421875 L 2.296875 -5.894531 L 4.511719 -5.894531 L 4.511719 -7.367188 L 0.824219 -7.367188 L 0.824219 0 Z M 4.636719 0 "/></g></g></g><g fill="#5900bd" fill-opacity="1"><g transform="translate(183.82675, 252.851863)"><g><path d="M 0.824219 -7.367188 L 0.824219 0 L 4.636719 0 L 4.636719 -1.472656 L 2.296875 -1.472656 L 2.296875 -7.367188 Z M 0.824219 -7.367188 "/></g></g></g><g fill="#5900bd" fill-opacity="1"><g transform="translate(197.154298, 252.851863)"><g><path d="M 4.371094 0.101562 C 9.4375 0.101562 9.4375 -7.492188 4.371094 -7.492188 C -0.699219 -7.492188 -0.699219 0.101562 4.371094 0.101562 Z M 4.371094 -1.421875 C 1.421875 -1.421875 1.421875 -5.976562 4.371094 -5.976562 C 7.316406 -5.976562 7.316406 -1.421875 4.371094 -1.421875 Z M 4.371094 -1.421875 "/></g></g></g><g fill="#5900bd" fill-opacity="1"><g transform="translate(214.128311, 252.851863)"><g><path d="M 2.296875 0 L 2.296875 -2.8125 L 3.71875 -2.8125 C 6.574219 -2.8125 6.585938 -7.359375 3.71875 -7.359375 L 0.824219 -7.359375 L 0.824219 0 Z M 2.296875 -4.246094 L 2.296875 -5.894531 L 3.597656 -5.894531 C 4.585938 -5.894531 4.585938 -4.246094 3.597656 -4.246094 Z M 2.296875 -4.246094 "/></g></g></g><g fill="#5900bd" fill-opacity="1"><g transform="translate(228.588956, 252.851863)"><g><path d="M 4.636719 0 L 4.636719 -1.472656 L 2.296875 -1.472656 L 2.296875 -2.945312 L 4.234375 -2.945312 L 4.234375 -4.421875 L 2.296875 -4.421875 L 2.296875 -5.894531 L 4.511719 -5.894531 L 4.511719 -7.367188 L 0.824219 -7.367188 L 0.824219 0 Z M 4.636719 0 "/></g></g></g><g fill="#5900bd" fill-opacity="1"><g transform="translate(242.029812, 252.851863)"><g><path d="M 4.492188 0 L 6.164062 0 L 4.453125 -3.039062 C 6.617188 -3.667969 6.359375 -7.367188 3.730469 -7.367188 L 0.824219 -7.367188 L 0.824219 0 L 2.296875 0 L 2.296875 -2.8125 L 3.007812 -2.8125 Z M 2.296875 -4.246094 L 2.296875 -5.894531 L 3.597656 -5.894531 C 4.597656 -5.894531 4.597656 -4.246094 3.597656 -4.246094 Z M 2.296875 -4.246094 "/></g></g></g></svg>